<?xml version="1.0" encoding="UTF-8"?>
<svg width="33px" height="32px" viewBox="0 0 33 32" version="1.1" xmlns="http://www.w3.org/2000/svg" xmlns:xlink="http://www.w3.org/1999/xlink">
    <title>patientoTopSmallIcon</title>
    <g id="Page-1" stroke="none" stroke-width="1" fill="none" fill-rule="evenodd">
        <g id="patientoTopSmallIcon" transform="translate(0.5, 0)" fill-rule="nonzero">
            <path d="M24.8470588,4.55529412 L24.8470588,26.3152941 C24.8470588,27.3754353 23.9872,28.2352941 22.9270588,28.2352941 L8.69647059,28.2352941 C7.63632941,28.2352941 6.77647059,27.3754353 6.77647059,26.3152941 L6.77647059,4.55529412 C6.77647059,3.49515294 7.63632941,2.63529412 8.69647059,2.63529412 C8.70535529,2.63529412 22.9181741,2.63529412 22.9270588,2.63529412 C23.9872,2.63529412 24.8470588,3.49515294 24.8470588,4.55529412 Z" id="XMLID_8676_" fill="#9BC9FF"></path>
            <path d="M29.7411765,4.14117647 C30.7809882,4.14117647 31.6235294,4.98371765 31.6235294,6.02352941 C31.6235294,7.06334118 30.7809882,7.90588235 29.7411765,7.90588235 C28.7013647,7.90588235 27.8588235,7.06334118 27.8588235,6.02352941 C27.8588235,4.98371765 28.7013647,4.14117647 29.7411765,4.14117647 Z" id="XMLID_560_" fill="#FFFFFF"></path>
            <path d="M1.88235294,21.0823529 C2.71435294,21.0823529 3.38823529,21.7562353 3.38823529,22.5882353 C3.38823529,23.4202353 2.71435294,24.0941176 1.88235294,24.0941176 C1.05035294,24.0941176 0.376470588,23.4202353 0.376470588,22.5882353 C0.376470588,21.7562353 1.05035294,21.0823529 1.88235294,21.0823529 Z" id="XMLID_559_" fill="#FFFFFF"></path>
            <path d="M19.2,1.12941176 C20.032,1.12941176 20.7058824,1.80329412 20.7058824,2.63529412 C20.7058824,3.05091765 20.5372235,3.42738824 20.2646588,3.69995294 C19.9920941,3.97251765 19.6156235,4.14117647 19.2,4.14117647 L12.4235294,4.14117647 C11.5915294,4.14117647 10.9176471,3.46729412 10.9176471,2.63529412 C10.9176471,2.21967059 11.0863059,1.8432 11.3588706,1.57063529 C11.6314353,1.29807059 12.0079059,1.12941176 12.4235294,1.12941176 L19.2,1.12941176 Z" id="XMLID_558_" fill="#FFFFFF"></path>
            <circle id="XMLID_557_" fill="#1E81CE" cx="30.6823529" cy="12.2352941" r="1"></circle>
            <circle id="XMLID_556_" fill="#1E81CE" cx="27.6705882" cy="21.6470588" r="1"></circle>
            <circle id="XMLID_555_" fill="#1E81CE" cx="26.5411765" cy="0.564705882" r="1"></circle>
            <circle id="XMLID_554_" fill="#1E81CE" cx="21.2705882" cy="30.6823529" r="1"></circle>
            <polygon id="XMLID_553_" fill="#FFFFFF" points="18.8235294 8.09411765 18.8235294 9.97647059 16.9411765 9.97647059 16.9411765 11.6705882 15.0588235 11.6705882 15.0588235 9.97647059 13.1764706 9.97647059 13.1764706 8.09411765 15.0588235 8.09411765 15.0588235 6.4 16.9411765 6.4 16.9411765 8.09411765"></polygon>
            <circle id="XMLID_552_" fill="#1E81CE" cx="3.57647059" cy="12.6117647" r="1"></circle>
            <circle id="XMLID_551_" fill="#1E81CE" cx="1.69411765" cy="1.31764706" r="1"></circle>
            <path d="M22.9270588,28.6117647 L8.69647059,28.6117647 C7.43017412,28.6117647 6.4,27.5815153 6.4,26.3152941 L6.4,4.55529412 C6.4,3.28899765 7.43017412,2.25882353 8.69647059,2.25882353 L10.9176471,2.25882353 C11.1255341,2.25882353 11.2941176,2.42740706 11.2941176,2.63529412 C11.2941176,2.84318118 11.1255341,3.01176471 10.9176471,3.01176471 L8.69647059,3.01176471 C7.84534588,3.01176471 7.15294118,3.70416941 7.15294118,4.55529412 L7.15294118,26.3152941 C7.15294118,27.1664188 7.84534588,27.8588235 8.69647059,27.8588235 L22.9270588,27.8588235 C23.7781835,27.8588235 24.4705882,27.1664188 24.4705882,26.3152941 L24.4705882,4.55529412 C24.4705882,3.70416941 23.7781835,3.01176471 22.9270588,3.01176471 L20.7058824,3.01176471 C20.4979953,3.01176471 20.3294118,2.84318118 20.3294118,2.63529412 C20.3294118,2.42740706 20.4979953,2.25882353 20.7058824,2.25882353 L22.9270588,2.25882353 C24.1933553,2.25882353 25.2235294,3.28899765 25.2235294,4.55529412 L25.2235294,26.3152941 C25.2235294,27.5815153 24.1933553,28.6117647 22.9270588,28.6117647 Z" id="XMLID_550_" fill="#1E81CE"></path>
            <path d="M19.2,4.51764706 L12.4235294,4.51764706 C11.3856,4.51764706 10.5411765,3.67322353 10.5411765,2.63529412 C10.5411765,2.13278118 10.7370165,1.66008471 11.0926306,1.30447059 C11.44832,0.948781176 11.9210165,0.752941176 12.4235294,0.752941176 L19.2,0.752941176 C20.2379294,0.752941176 21.0823529,1.59736471 21.0823529,2.63529412 C21.0823529,3.13780706 20.8865129,3.61050353 20.5308988,3.96611765 C20.1752094,4.32180706 19.7025129,4.51764706 19.2,4.51764706 Z M12.4235294,1.50588235 C12.1220518,1.50588235 11.8384941,1.62341647 11.6250353,1.83687529 C11.4116518,2.05025882 11.2941176,2.33381647 11.2941176,2.63529412 C11.2941176,3.25805176 11.8007718,3.76470588 12.4235294,3.76470588 L19.2,3.76470588 C19.5014776,3.76470588 19.7850353,3.64717176 19.9984941,3.43371294 C20.2118776,3.22032941 20.3294118,2.93677176 20.3294118,2.63529412 C20.3294118,2.01253647 19.8227576,1.50588235 19.2,1.50588235 L12.4235294,1.50588235 Z" id="XMLID_8635_" fill="#1E81CE"></path>
            <path d="M16.9411765,12.0470588 L15.0588235,12.0470588 C14.8509365,12.0470588 14.6823529,11.8784753 14.6823529,11.6705882 L14.6823529,10.3529412 L13.1764706,10.3529412 C12.9685835,10.3529412 12.8,10.1843576 12.8,9.97647059 L12.8,8.09411765 C12.8,7.88623059 12.9685835,7.71764706 13.1764706,7.71764706 L14.6823529,7.71764706 L14.6823529,6.4 C14.6823529,6.19211294 14.8509365,6.02352941 15.0588235,6.02352941 L16.9411765,6.02352941 C17.1490635,6.02352941 17.3176471,6.19211294 17.3176471,6.4 L17.3176471,7.71764706 L18.8235294,7.71764706 C19.0314165,7.71764706 19.2,7.88623059 19.2,8.09411765 L19.2,9.97647059 C19.2,10.1843576 19.0314165,10.3529412 18.8235294,10.3529412 L17.3176471,10.3529412 L17.3176471,11.6705882 C17.3176471,11.8784753 17.1490635,12.0470588 16.9411765,12.0470588 Z M15.4352941,11.2941176 L16.5647059,11.2941176 L16.5647059,9.97647059 C16.5647059,9.76858353 16.7332894,9.6 16.9411765,9.6 L18.4470588,9.6 L18.4470588,8.47058824 L16.9411765,8.47058824 C16.7332894,8.47058824 16.5647059,8.30200471 16.5647059,8.09411765 L16.5647059,6.77647059 L15.4352941,6.77647059 L15.4352941,8.09411765 C15.4352941,8.30200471 15.2667106,8.47058824 15.0588235,8.47058824 L13.5529412,8.47058824 L13.5529412,9.6 L15.0588235,9.6 C15.2667106,9.6 15.4352941,9.76858353 15.4352941,9.97647059 L15.4352941,11.2941176 Z" id="XMLID_8627_" fill="#1E81CE"></path>
            <path d="M15.8117647,14.6823529 L9.78823529,14.6823529 C9.58034824,14.6823529 9.41176471,14.5137694 9.41176471,14.3058824 C9.41176471,14.0979953 9.58034824,13.9294118 9.78823529,13.9294118 L15.8117647,13.9294118 C16.0196518,13.9294118 16.1882353,14.0979953 16.1882353,14.3058824 C16.1882353,14.5137694 16.0196518,14.6823529 15.8117647,14.6823529 Z" id="XMLID_545_" fill="#1E81CE"></path>
            <path d="M21.8352941,16.9411765 L9.78823529,16.9411765 C9.58034824,16.9411765 9.41176471,16.7726682 9.41176471,16.5647059 C9.41176471,16.3567435 9.58034824,16.1882353 9.78823529,16.1882353 L21.8352941,16.1882353 C22.0431812,16.1882353 22.2117647,16.3567435 22.2117647,16.5647059 C22.2117647,16.7726682 22.0431812,16.9411765 21.8352941,16.9411765 Z" id="XMLID_544_" fill="#1E81CE"></path>
            <path d="M21.8352941,19.2 L9.78823529,19.2 C9.58034824,19.2 9.41176471,19.0314918 9.41176471,18.8235294 C9.41176471,18.6155671 9.58034824,18.4470588 9.78823529,18.4470588 L21.8352941,18.4470588 C22.0431812,18.4470588 22.2117647,18.6155671 22.2117647,18.8235294 C22.2117647,19.0314918 22.0431812,19.2 21.8352941,19.2 Z" id="XMLID_543_" fill="#1E81CE"></path>
            <path d="M21.8352941,21.4588235 L9.78823529,21.4588235 C9.58034824,21.4588235 9.41176471,21.2903153 9.41176471,21.0823529 C9.41176471,20.8743906 9.58034824,20.7058824 9.78823529,20.7058824 L21.8352941,20.7058824 C22.0431812,20.7058824 22.2117647,20.8743906 22.2117647,21.0823529 C22.2117647,21.2903153 22.0431812,21.4588235 21.8352941,21.4588235 Z" id="XMLID_542_" fill="#1E81CE"></path>
            <path d="M21.8352941,23.7176471 L9.78823529,23.7176471 C9.58034824,23.7176471 9.41176471,23.5491388 9.41176471,23.3411765 C9.41176471,23.1332141 9.58034824,22.9647059 9.78823529,22.9647059 L21.8352941,22.9647059 C22.0431812,22.9647059 22.2117647,23.1332141 22.2117647,23.3411765 C22.2117647,23.5491388 22.0431812,23.7176471 21.8352941,23.7176471 Z" id="XMLID_541_" fill="#1E81CE"></path>
            <path d="M21.8352941,25.9764706 L9.78823529,25.9764706 C9.58034824,25.9764706 9.41176471,25.8079624 9.41176471,25.6 C9.41176471,25.3920376 9.58034824,25.2235294 9.78823529,25.2235294 L21.8352941,25.2235294 C22.0431812,25.2235294 22.2117647,25.3920376 22.2117647,25.6 C22.2117647,25.8079624 22.0431812,25.9764706 21.8352941,25.9764706 Z" id="XMLID_540_" fill="#1E81CE"></path>
            <path d="M29.7411765,8.28235294 C28.4956612,8.28235294 27.4823529,7.26904471 27.4823529,6.02352941 C27.4823529,4.77801412 28.4956612,3.76470588 29.7411765,3.76470588 C30.9866918,3.76470588 32,4.77801412 32,6.02352941 C32,7.26904471 30.9866918,8.28235294 29.7411765,8.28235294 Z M29.7411765,4.51764706 C28.9108329,4.51764706 28.2352941,5.19318588 28.2352941,6.02352941 C28.2352941,6.85387294 28.9108329,7.52941176 29.7411765,7.52941176 C30.57152,7.52941176 31.2470588,6.85387294 31.2470588,6.02352941 C31.2470588,5.19318588 30.57152,4.51764706 29.7411765,4.51764706 Z" id="XMLID_8601_" fill="#1E81CE"></path>
            <path d="M1.88235294,24.4705882 C0.844423529,24.4705882 0,23.6261647 0,22.5882353 C0,21.5503059 0.844423529,20.7058824 1.88235294,20.7058824 C2.92028235,20.7058824 3.76470588,21.5503059 3.76470588,22.5882353 C3.76470588,23.6261647 2.92028235,24.4705882 1.88235294,24.4705882 Z M1.88235294,21.4588235 C1.25959529,21.4588235 0.752941176,21.9654024 0.752941176,22.5882353 C0.752941176,23.2110682 1.25959529,23.7176471 1.88235294,23.7176471 C2.50511059,23.7176471 3.01176471,23.2110682 3.01176471,22.5882353 C3.01176471,21.9654024 2.50511059,21.4588235 1.88235294,21.4588235 Z" id="XMLID_8590_" fill="#1E81CE"></path>
        </g>
    </g>
</svg>